<?xml version="1.0" standalone="no"?>
<!DOCTYPE svg PUBLIC "-//W3C//DTD SVG 20010904//EN"
 "http://www.w3.org/TR/2001/REC-SVG-20010904/DTD/svg10.dtd">
<svg version="1.0" xmlns="http://www.w3.org/2000/svg"
 width="223.000000pt" height="223.000000pt" viewBox="0 0 223.000000 223.000000"
 preserveAspectRatio="xMidYMid meet">
<metadata>
Created by potrace 1.11, written by Peter Selinger 2001-2013
</metadata>
<g transform="translate(0.000000,223.000000) scale(0.100000,-0.100000)"
fill="#000000" stroke="none">
<path d="M1313 2179 c-88 -16 -184 -89 -250 -191 -24 -38 -46 -68 -47 -68 -2
0 -18 22 -35 49 -41 63 -118 135 -167 156 -50 21 -136 21 -194 0 -47 -16 -125
-63 -118 -71 2 -2 40 -10 84 -19 97 -18 186 -61 237 -113 l38 -39 -113 -6
c-173 -8 -262 -46 -327 -141 -35 -51 -69 -145 -65 -184 1 -15 2 -33 3 -40 1
-6 40 19 88 57 118 92 162 113 249 119 43 3 74 0 78 -6 3 -6 -20 -28 -51 -49
-99 -67 -153 -157 -153 -252 0 -49 19 -131 30 -131 4 0 19 17 32 38 45 65 106
129 164 167 30 20 58 35 60 32 3 -3 7 -40 10 -82 6 -92 32 -166 80 -229 32
-42 54 -58 54 -38 4 178 22 252 76 303 32 30 39 21 63 -76 41 -164 53 -374 48
-824 -3 -229 -9 -433 -12 -453 l-7 -38 72 0 73 0 -7 333 c-4 182 -9 359 -12
392 -8 110 -22 255 -29 310 -29 225 -38 290 -51 344 -8 35 -12 66 -9 69 19 19
220 -54 295 -108 37 -27 40 -26 40 13 0 79 -105 211 -207 260 -24 12 -43 25
-43 30 0 4 42 7 93 6 87 -2 142 -7 265 -24 44 -6 52 -4 52 9 0 25 -45 91 -77
114 -71 50 -100 56 -260 55 -175 -1 -173 -3 -81 84 62 58 127 94 213 118 95
26 90 23 69 46 -47 53 -173 91 -251 78z"/>
</g>
</svg>
